<svg xmlns="http://www.w3.org/2000/svg" viewBox="0 0 391.12 198.92" class="header-bear-notes-illustration"><defs><style>.boat-cls-1,.boat-cls-3,.boat-cls-6{fill:#b3bdc7;}.boat-cls-1{opacity:0.1;}.boat-cls-2{fill:#fff;}.boat-cls-3{opacity:0.3;}.boat-cls-4,.boat-cls-5{fill:none;stroke:#b3bdc7;stroke-linecap:round;stroke-linejoin:round;}.boat-cls-4{opacity:0.2;}</style></defs><title>Bear on a Boat</title><g id="Layer_2" data-name="Layer 2"><g id="Layer_1-2" data-name="Layer 1"><path class="boat-cls-1" d="M263.29,109.16c-2.24-6.56-5.38-13.06-5.67-19.36l-2-1.06a50.88,50.88,0,0,0,2.26,12.38c2,6.31,2.56,7.8,2.56,7.8Z"></path><path class="boat-cls-1" d="M251,86a6.35,6.35,0,0,0,4.57,1.43v-2Z"></path><rect class="boat-cls-1" x="255.15" y="159.3" width="16.82" height="1.08"></rect><polygon class="boat-cls-1" points="242.23 159.09 221.64 159.09 222.06 160.49 242.23 160.49 242.23 159.09"></polygon><path class="boat-cls-1" d="M220.07,155.18l.74-1.64a6.39,6.39,0,0,1,1.52-2.09c1-.88,2.41-3,2.58-8,.2-6.4,2.06-23.31,2.62-28.24a1.24,1.24,0,0,0-1.23-1.37h-.05l-3.25,29s-.2,5-2.35,7.16L219.24,152l-.33,1Z"></path><path class="boat-cls-1" d="M254.45,152.49c1.88-.56,5.18-2.74,5.56-5.13l-5.87,2.78Z"></path><path class="boat-cls-1" d="M219.76,150.79c-.5.85-3.67,8.12-3.68,2.91,0-1.23-1.64,1.87-1.62,1.85-1,1.36-1.13-1.91-1.12-1.89-.05-.37-.63.59-1,1.32-1,1.87-2.26-4.19-2.59-5.35a5.11,5.11,0,0,0,5,3.58C218.64,153,219.76,150.79,219.76,150.79Z"></path><path class="boat-cls-2" d="M185.23,14.62c-2.58-4.84,1.8-9.84,5.93-7.92a5,5,0,0,1-.95,6.86A7.12,7.12,0,0,1,185.23,14.62Z"></path><path class="boat-cls-3" d="M190.72,6.34a7.6,7.6,0,0,0-3.91.64,5,5,0,0,0-2,2.36A5.39,5.39,0,0,0,185,14.5c-1.13-.3-2.25-.64-3.34-1-.54.46-1,1-1.5,1.51a3.22,3.22,0,0,1-1.85,1,1.06,1.06,0,0,1-.83-.21,1,1,0,0,1-.14-1.15,3.06,3.06,0,0,1,.84-.92L186.85,2s2.46-1.72,4,.24a2.08,2.08,0,0,1-.23,3.19Z"></path><rect class="boat-cls-1" x="270.28" y="62.25" width="18.44" height="10.24"></rect><rect class="boat-cls-1" x="269.02" y="63.16" width="1.26" height="8.51"></rect><rect class="boat-cls-1" x="259.19" y="63.78" width="1.26" height="4.25"></rect><path class="boat-cls-1" d="M291.62,72.48a6.54,6.54,0,0,0,0-10.23Z"></path><path class="boat-cls-1" d="M286.16,191h0a12.43,12.43,0,0,0,11.83-8.6l8.36-25.81a1.42,1.42,0,0,0-1.36-1.86h-1.44a5.42,5.42,0,0,0-5.19,3.84l-.59,1.94h4l-1.37,4.75-4.67,10.57-4,7.3-4.34,6.38"></path><path class="boat-cls-1" d="M154.92,198.42H278.85c7.83-6.75,14.34-17,17.88-24.61H133a25.89,25.89,0,0,0,5.88,8.72Z"></path><path class="boat-cls-1" d="M299.31,167.78c1.7-4.37,2.49-7.29,2.49-7.29H131V164a24.89,24.89,0,0,0,.28,3.77Z"></path><path class="boat-cls-4" d="M265.44,109.38s14.69,18.91,23.8,34"></path><line class="boat-cls-4" x1="275.36" y1="144.29" x2="288.39" y2="144.88"></line><line class="boat-cls-4" x1="198.1" y1="140.78" x2="206.92" y2="141.18"></line><line class="boat-cls-4" x1="195.17" y1="34.1" x2="196.7" y2="139.74"></line><path class="boat-cls-4" d="M196.35,33.63s18.75,17,29.88,28.62"></path><path class="boat-cls-5" d="M265.24,127.66c-1.57-15.25-11-29-9.48-42.64"></path><path class="boat-cls-5" d="M228.39,63.7a7.62,7.62,0,0,0-3.47,3.74,17,17,0,0,0-1.31,7.82,89.53,89.53,0,0,1-1.17,12c-2.57,16.22-19.21,26.07-16.09,50.35,2.56,19.89,10.53,15.1,10.53,15.1l.19-.09a9.81,9.81,0,0,0,5.72-8l3.43-30.51"></path><path class="boat-cls-6" d="M261.08,68c-4.82,1.33-.61,5.56,1.75,5.56s6.6-4.22,1.76-5.56A6.54,6.54,0,0,0,261.08,68Z"></path><path class="boat-cls-5" d="M244.67,68.85a1.15,1.15,0,0,1,2.3,0"></path><path class="boat-cls-5" d="M226.62,64.83c-1.75-7.13,2.73-7.82,5-4"></path><path class="boat-cls-5" d="M242.39,60.86c-.54-3.23-3.59-3-5.34-.06"></path><path class="boat-cls-5" d="M231.9,60.85h13.24a6,6,0,0,1,3.91,1.44l4.82,4.12a6,6,0,0,0,3.91,1.43h6.49a2,2,0,0,1,2,2v.8a15,15,0,0,1-15,15"></path><path class="boat-cls-5" d="M259.34,78.84a3,3,0,0,1-4.18.06"></path><line class="boat-cls-5" x1="242.07" y1="160.49" x2="243" y2="152.37"></line><path class="boat-cls-5" d="M254.14,150.14l1,10.36H272.2a3.22,3.22,0,0,0-3.22-3.22h-.56l6.85-13.43a9.85,9.85,0,0,0-3.75-12.94l-6.28-3.25"></path><line class="boat-cls-5" x1="218.92" y1="152.99" x2="222.06" y2="160.49"></line><path class="boat-cls-5" d="M243,152.36a31.65,31.65,0,0,0,6.14-.73,32.3,32.3,0,0,0,10.51-4.27"></path><path class="boat-cls-5" d="M264.93,92.9c-2,.1-5.19-1.35-9.2-4.39"></path><path class="boat-cls-5" d="M278.52,72.71c3.44,4.38,5.62,12.64,3.15,25.55-.62,3.25-4.24,9.67-7.44,10.6-2.56.75-8.08,1-13.59-.16"></path><path class="boat-cls-5" d="M264.93,92.9a54.09,54.09,0,0,0,.87-11.42c-.18-3.33-.46-7,1.15-9.81"></path><rect class="boat-cls-5" x="270.28" y="62.25" width="18.44" height="10.24"></rect><polyline class="boat-cls-5" points="270.28 63.16 260.6 63.16 260.6 71.57 270.02 71.57"></polyline><polyline class="boat-cls-5" points="253.03 63.78 260.6 63.78 260.6 70.95"></polyline><rect class="boat-cls-5" x="288.72" y="60.97" width="2.9" height="12.79"></rect><polyline class="boat-cls-5" points="253.03 65.68 253.03 63.16 250.12 63.16"></polyline><line class="boat-cls-5" x1="270.48" y1="66.08" x2="288.72" y2="66.08"></line><line class="boat-cls-5" x1="272.61" y1="64.89" x2="274.99" y2="67.27"></line><line class="boat-cls-5" x1="274.99" y1="64.89" x2="272.61" y2="67.27"></line><line class="boat-cls-5" x1="278.41" y1="64.89" x2="280.79" y2="67.27"></line><line class="boat-cls-5" x1="280.79" y1="64.89" x2="278.41" y2="67.27"></line><line class="boat-cls-5" x1="284.21" y1="64.89" x2="286.59" y2="67.27"></line><line class="boat-cls-5" x1="286.59" y1="64.89" x2="284.21" y2="67.27"></line><path class="boat-cls-5" d="M291.62,72.48a6.54,6.54,0,0,0,0-10.23"></path><path class="boat-cls-5" d="M278.85,198.42c15.53-13.4,22.95-37.93,22.95-37.93H131V164a25.84,25.84,0,0,0,7.82,18.52l16.09,15.74Z"></path><line class="boat-cls-5" x1="298.81" y1="167.78" x2="131.31" y2="167.78"></line><line class="boat-cls-5" x1="296.23" y1="173.8" x2="132.97" y2="173.8"></line><path class="boat-cls-5" d="M181.79,13.2c6.11,4.36,14.11-1.06,8.78-7.53,3-3.31-1.9-5.94-4.18-2.89l-9.31,12.49.42.26a1.77,1.77,0,0,0,2.24-.26Z"></path><line class="boat-cls-5" x1="191.41" y1="4.4" x2="192.78" y2="4.94"></line><polyline class="boat-cls-5" points="188.5 0.5 188.34 1.38 187.72 0.7"></polyline><line class="boat-cls-5" x1="189.43" y1="3" x2="189.43" y2="3"></line><line class="boat-cls-5" x1="185.71" y1="14.73" x2="185.71" y2="17.78"></line><line class="boat-cls-5" x1="188.11" y1="14.73" x2="188.11" y2="17.78"></line><path class="boat-cls-5" d="M184.45,160.49V19.12c0-1.78,4.82-1.78,4.82,0V160.49"></path><path class="boat-cls-5" d="M289,160.49v-1.15a2.4,2.4,0,0,1,2.41-2.4h0a2.4,2.4,0,0,1,2.41,2.4v1.15"></path><path class="boat-cls-5" d="M290.29,160.49v-1.15a1.07,1.07,0,0,1,1.07-1.07h0a1.07,1.07,0,0,1,1.07,1.07v1.15"></path><path class="boat-cls-5" d="M134.07,160.49v-1.15a2.4,2.4,0,0,1,2.4-2.4h0a2.4,2.4,0,0,1,2.41,2.4v1.15"></path><path class="boat-cls-5" d="M135.4,160.49v-1.15a1.07,1.07,0,0,1,1.08-1.07h0a1.07,1.07,0,0,1,1.07,1.07v1.15"></path><path class="boat-cls-5" d="M297.76,160.49l.59-1.94a5.43,5.43,0,0,1,5.19-3.84H305a1.42,1.42,0,0,1,1.35,1.86L298,182.38a12.43,12.43,0,0,1-11.83,8.6h0"></path><path class="boat-cls-5" d="M135.4,152.24l45.32-8.59V25.89C161.45,67.94,142.57,117.28,135.4,152.24Z"></path><line class="boat-cls-4" x1="175.78" y1="140.87" x2="142" y2="146.52"></line><path class="boat-cls-4" d="M140.48,144.68c6.42-25,23.86-73.55,37.79-106.51L177,139.37"></path><path class="boat-cls-5" d="M207.72,144.9l-14.94-.82V25.89c9.95,9,21.59,19.51,34.59,32.86"></path><path class="boat-cls-5" d="M270.6,109.5c8.91,11.91,18.16,25.28,27.69,40.36l-25.24-1.39"></path><path class="boat-cls-5" d="M194.64,33.81a1.1,1.1,0,0,0,1.71-.18c.42-.66.49-2.62-.86-2.35C194.78,31.42,193.86,33,194.64,33.81Z"></path><path class="boat-cls-5" d="M178.15,36.31a.85.85,0,0,0,1.52-.2c.37-.77.44-3.06-.77-2.75A2.36,2.36,0,0,0,178.15,36.31Z"></path><path class="boat-cls-5" d="M189.43,20.78l5.68,11.06a1.72,1.72,0,0,1-.17,1.89l-.1-1.35"></path><path class="boat-cls-5" d="M184.23,21.12c1.65-.08,3.3-.24,4.93-.47"></path><path class="boat-cls-5" d="M184,22a26.86,26.86,0,0,0,5.8.51"></path><path class="boat-cls-5" d="M183.91,23.78a30.69,30.69,0,0,0,5.58-.39"></path><path class="boat-cls-5" d="M184,24.84a28.11,28.11,0,0,0,5.8.06"></path><path class="boat-cls-5" d="M184.45,25.89l-5.31,8.55a1.26,1.26,0,0,0,0,1.18l.57.49-.32-1.76"></path><path class="boat-cls-5" d="M176.12,140.17c-.4.53-.22,1,.35,1.35.79.49,1.54.32,1.55-.74,0-.75-.29-1.34-.93-1.2A1.57,1.57,0,0,0,176.12,140.17Z"></path><path class="boat-cls-5" d="M196.2,140.17c-.4.53-.22,1,.35,1.35.79.49,1.54.32,1.55-.74,0-.75-.29-1.34-.93-1.2A1.57,1.57,0,0,0,196.2,140.17Z"></path><path class="boat-cls-5" d="M177.74,140.27a2.3,2.3,0,0,0-.05,2.43,3.62,3.62,0,0,0,.69,1.08l6.07,6.71"></path><path class="boat-cls-5" d="M196.53,140.17h0a1.45,1.45,0,0,1-.14,1.57l-7.12,9"></path><path class="boat-cls-5" d="M183.91,151.93c1.92-.18,3.84-.31,5.77-.36"></path><line class="boat-cls-5" x1="184.17" y1="148.94" x2="189.66" y2="149.97"></line><path class="boat-cls-5" d="M290,146.33c1.77-.57.91-3.38-.76-2.91C287.35,144,288.32,146.88,290,146.33Z"></path><path class="boat-cls-5" d="M289.17,146.32l-.78-1.44.62.44a2.65,2.65,0,0,1,1.11,1.88L291.36,159l2.41-1.4"></path><line class="boat-cls-5" x1="289.59" y1="157.34" x2="291.36" y2="158.98"></line><line class="boat-cls-5" x1="288.66" y1="149.34" x2="290.29" y2="157.19"></line><line class="boat-cls-5" x1="192.78" y1="32.69" x2="189.27" y2="25.89"></line><line class="boat-cls-5" x1="180.71" y1="34.58" x2="184.23" y2="30.58"></line><line class="boat-cls-5" x1="192.78" y1="141.14" x2="189.27" y2="146.54"></line><path class="boat-cls-5" d="M180.71,141.78l3.21,6,5.75-.14"></path><path class="boat-cls-5" d="M140,147.88c-1.76-.57-.91-3.38.76-2.91C142.61,145.5,141.66,148.42,140,147.88Z"></path><path class="boat-cls-5" d="M140.8,147.87l.78-1.44-.63.44a2.74,2.74,0,0,0-1.36,1.73l-3,10.61-2.54-1.6"></path><line class="boat-cls-5" x1="138.63" y1="157.45" x2="136.6" y2="159.21"></line><line class="boat-cls-5" x1="141.25" y1="151.13" x2="138.63" y2="158.27"></line><path class="boat-cls-5" d="M219.76,150.79c-.5.85-3.67,8.12-3.68,2.91,0-1.23-1.64,1.87-1.62,1.85-1,1.36-1.13-1.91-1.12-1.89-.05-.37-.63.59-1,1.32-1,1.87-2.26-4.19-2.59-5.35"></path><line class="boat-cls-4" x1="237.6" y1="92.22" x2="237.28" y2="94.96"></line><line class="boat-cls-4" x1="209.91" y1="135.71" x2="209.59" y2="138.45"></line><line class="boat-cls-4" x1="213.8" y1="128.54" x2="213.48" y2="131.28"></line><line class="boat-cls-4" x1="212.56" y1="144.11" x2="212.23" y2="146.85"></line><path class="boat-cls-4" d="M219.24,112.81c-.21,1.21-.43,2.42-.64,3.63"></path><path class="boat-cls-4" d="M229.92,98.58a11.09,11.09,0,0,0-.34,2.63"></path><path class="boat-cls-4" d="M220.66,124.12a11.09,11.09,0,0,0-.34,2.63"></path><path class="boat-cls-4" d="M226,92.9a11.61,11.61,0,0,0-.63,2.74"></path><path class="boat-cls-4" d="M218.08,104.05c-.18,1-.36,2-.53,3"></path><path class="boat-cls-4" d="M212.66,119c-.18,1-.35,2-.53,3"></path><path class="boat-cls-4" d="M230.34,122.16a17.91,17.91,0,0,0,.21,3.27"></path><path class="boat-cls-4" d="M237.37,126.91A13.88,13.88,0,0,0,238.6,130"></path><path class="boat-cls-4" d="M234.44,135a4.26,4.26,0,0,0,.84,2.64"></path><path class="boat-cls-4" d="M247,125.75c0,.7.07,1.4.1,2.11"></path><path class="boat-cls-4" d="M251.38,133.75a13.29,13.29,0,0,0,.11,2.6"></path><path class="boat-cls-4" d="M249.61,104.29c0,.71.19,3,.19,3"></path><path class="boat-cls-4" d="M253.09,97.56c0,.71.19,3,.19,3"></path><path class="boat-cls-4" d="M256.3,110.55c0,.71.19,3,.19,3"></path><path class="boat-cls-4" d="M247.2,112.39a14.08,14.08,0,0,0,.57,2.41"></path><line class="boat-cls-4" x1="241.82" y1="121.33" x2="242.03" y2="118.23"></line><line class="boat-cls-4" x1="240.91" y1="105.61" x2="240.96" y2="108.68"></line><path class="boat-cls-4" d="M234.18,109.82a12.15,12.15,0,0,0,.25,2.63"></path><path class="boat-cls-4" d="M218.78,137.92a21.83,21.83,0,0,0-.7,4.1"></path><path class="boat-cls-4" d="M224.86,109.16c.18-.78.36-1.57.54-2.34"></path><path class="boat-cls-4" d="M244.69,94.21v3.35"></path><path class="boat-cls-4" d="M254.64,118c.1,1.05.21,2.11.32,3.17"></path><path class="boat-cls-4" d="M260.19,125.34v2.36"></path><path class="boat-cls-4" d="M244.1,137c.05.85.05,1.69,0,2.54"></path><path class="boat-cls-4" d="M258.52,140.66a8.91,8.91,0,0,1,.12-1.93"></path><path class="boat-cls-4" d="M269,134.82a3.41,3.41,0,0,1,1.44,2.3"></path><path class="boat-cls-4" d="M264.3,139.17a5.5,5.5,0,0,0,.78,1.5"></path><path class="boat-cls-4" d="M270.44,143.82a7.22,7.22,0,0,1-.95,2.23"></path><path class="boat-cls-4" d="M263.83,148.11a21.44,21.44,0,0,1-.74,2"></path><path class="boat-cls-4" d="M258.34,155.66a5.27,5.27,0,0,0-.2-2.23"></path><path class="boat-cls-4" d="M264.83,157.16a4.76,4.76,0,0,1,.86-2"></path><path class="boat-cls-4" d="M226.7,137c0,.76,0,1.53.07,2.29"></path><path class="boat-cls-4" d="M232.86,148.4a13.89,13.89,0,0,0-.46-2.22"></path><path class="boat-cls-4" d="M238.92,141.59a18.45,18.45,0,0,0-.06,2.35"></path><path class="boat-cls-4" d="M224.91,149.46l.72,2.55"></path><path class="boat-cls-4" d="M236,158.14l.32-2.85"></path><path class="boat-cls-4" d="M229.53,155.91a10.05,10.05,0,0,0,0,1.55"></path><path class="boat-cls-4" d="M248.42,146.55l.17-1.12"></path><path class="boat-cls-4" d="M230.36,87.88V84.53"></path><path class="boat-cls-4" d="M259.6,96.3l2.61.73"></path><path class="boat-cls-4" d="M263.81,102.38h2.24"></path><path class="boat-cls-4" d="M276.13,99.08c.1-.56.39-2.28.49-2.84"></path><path class="boat-cls-4" d="M268.88,106.13l3-.2"></path><path class="boat-cls-4" d="M269.32,89.8a12.4,12.4,0,0,0,.24-2.11"></path><path class="boat-cls-4" d="M274.28,83.15a13.28,13.28,0,0,0,0,2.52"></path><path class="boat-cls-4" d="M279.36,86.83a12.72,12.72,0,0,0-.09,2.31"></path><path class="boat-cls-4" d="M269.4,76.26a22.86,22.86,0,0,0,.1,2.62"></path><path class="boat-cls-4" d="M277,75.46c.09,1.11.23,2.22.41,3.32"></path><path class="boat-cls-4" d="M269.24,98.11,271.31,97"></path><path class="boat-cls-4" d="M.5,35.15a3.54,3.54,0,0,1,5.63-2.86,6.37,6.37,0,0,1,11.75.88,3.54,3.54,0,0,1,6.48,2"></path><path class="boat-cls-4" d="M31.37,122.76a3.54,3.54,0,0,1,3.55-3.54,3.48,3.48,0,0,1,2.08.68,6.37,6.37,0,0,1,11.75.88,3.55,3.55,0,0,1,6.49,2"></path><path class="boat-cls-4" d="M373.81,49.53a3,3,0,0,0-3-3,2.9,2.9,0,0,0-1.69.53,4.94,4.94,0,0,0-9.24,2.44"></path><path class="boat-cls-4" d="M320.42,19a4,4,0,0,0-7.48,0"></path><path class="boat-cls-4" d="M390.62,128.16a4,4,0,0,0-7.48,0"></path><path class="boat-cls-4" d="M100.14,73.72a4,4,0,0,0-7.48,0"></path><circle class="boat-cls-4" cx="104.45" cy="39.22" r="18.33"></circle></g></g></svg>
